<?xml version="1.0" standalone="no"?>
<!DOCTYPE svg PUBLIC "-//W3C//DTD SVG 20010904//EN"
 "http://www.w3.org/TR/2001/REC-SVG-20010904/DTD/svg10.dtd">
<svg version="1.0" xmlns="http://www.w3.org/2000/svg"
 width="805.000000pt" height="819.000000pt" viewBox="0 0 805.000000 819.000000"
 preserveAspectRatio="xMidYMid meet">

<g transform="translate(0.000000,819.000000) scale(0.100000,-0.100000)"
fill="#000000" stroke="none">
<path d="M1530 7673 c-166 -28 -401 -129 -535 -230 -216 -161 -373 -383 -452
-638 l-28 -90 0 -2620 0 -2620 28 -90 c124 -397 413 -703 795 -844 180 -66
-33 -62 2722 -59 l2495 3 95 28 c126 37 294 119 403 197 219 157 403 424 484
700 l28 95 3 2535 c2 2247 1 2546 -13 2634 -34 220 -135 425 -298 610 -129
146 -383 300 -597 363 l-95 28 -2505 1 c-1378 1 -2516 -1 -2530 -3z m4979
-263 c383 -63 684 -338 783 -715 19 -74 21 -114 26 -515 2 -239 1 -535 -3
-657 l-7 -223 -28 0 c-25 0 -28 4 -32 43 -3 24 -6 299 -7 613 -1 313 -6 598
-12 634 -54 357 -352 659 -712 720 -43 7 -841 10 -2537 8 l-2475 -3 -73 -23
c-296 -91 -514 -313 -603 -614 -21 -70 -22 -96 -29 -703 -5 -346 -8 -640 -9
-652 -1 -19 -7 -23 -31 -23 l-31 0 3 673 c4 666 4 673 26 747 50 162 112 276
209 380 155 168 332 266 546 305 93 17 4893 21 4996 5z m-1470 -315 c10 -23
24 -46 30 -49 17 -11 13 -31 -14 -62 -14 -16 -28 -37 -31 -46 -3 -10 -8 -18
-12 -19 -4 0 -22 -2 -39 -3 -22 -3 -33 1 -33 9 0 24 -51 75 -83 83 -45 12 -44
29 5 52 24 11 52 33 61 49 32 54 89 47 116 -14z m-597 -45 c119 -37 222 -133
272 -253 20 -49 21 -71 24 -417 l3 -365 39 -50 c37 -48 200 -211 288 -288 l42
-37 293 -2 292 -2 -225 -6 c-167 -4 -214 -7 -181 -14 l45 -8 -27 -15 c-34 -17
-34 -29 1 -47 25 -13 25 -15 8 -22 -11 -4 -21 -3 -23 2 -2 6 -32 6 -81 0 -147
-17 -154 -14 -319 146 -198 191 -270 269 -287 310 -12 27 -14 99 -14 374 1
329 1 340 -21 389 -29 65 -81 118 -145 147 l-51 23 -1236 3 -1236 2 -23 25
c-31 33 -31 82 -1 107 22 17 73 18 1261 18 1206 0 1240 -1 1302 -20z m-2882
-73 c8 0 27 3 42 7 l26 8 4 -72 c1 -39 2 -73 0 -75 -2 -1 -19 2 -38 8 -26 8
-44 8 -65 0 l-29 -11 0 58 c0 32 -3 66 -7 76 -5 15 -2 16 23 9 16 -4 36 -8 44
-8z m-220 -184 c33 -75 64 -100 141 -117 43 -9 47 -66 6 -66 -47 -1 -105 -37
-131 -83 -25 -41 -56 -63 -71 -49 -3 4 -14 25 -25 49 -20 46 -73 81 -129 85
-26 2 -31 6 -31 29 0 23 6 28 44 38 55 13 98 49 121 98 36 78 47 80 75 16z
m5376 -62 c102 -48 164 -143 164 -251 0 -26 5 -61 11 -77 8 -26 17 -31 51 -36
75 -10 112 -73 68 -117 -20 -20 -31 -20 -382 -18 l-361 3 -21 28 c-19 26 -19
30 -6 55 16 28 48 48 93 57 21 4 27 11 27 31 0 58 59 104 131 104 68 -1 119
-41 135 -106 11 -45 23 -54 74 -54 66 0 78 6 102 54 59 113 -8 254 -138 292
-65 19 -124 9 -186 -31 -38 -25 -81 -89 -92 -137 -4 -19 -13 -28 -26 -28 -47
0 -9 112 64 184 78 79 188 97 292 47z m-686 -8 c0 -12 -2 -12 -15 1 -8 8 -15
17 -15 20 0 3 7 3 15 0 8 -4 15 -13 15 -21z m-564 -12 c53 -24 102 -77 115
-125 6 -21 8 -40 5 -43 -11 -11 -101 -3 -105 8 -9 29 -55 59 -88 59 -42 0 -83
-37 -83 -77 0 -17 -3 -23 -8 -16 -4 7 -29 13 -55 15 -44 3 -47 5 -47 31 0 60
60 130 131 152 60 19 87 18 135 -4z m541 -33 c-3 -7 -5 -2 -5 12 0 14 2 19 5
13 2 -7 2 -19 0 -25z m50 -10 c-3 -7 -5 -2 -5 12 0 14 2 19 5 13 2 -7 2 -19 0
-25z m-2425 -5 c23 -20 24 -80 1 -105 -15 -17 -59 -18 -969 -18 l-953 0 -20
26 c-27 34 -27 64 -1 92 l21 22 951 0 c871 0 953 -1 970 -17z m678 -33 c0 -42
3 -40 -72 -55 -12 -2 -18 3 -18 15 0 9 -3 32 -6 49 l-6 31 51 0 51 0 0 -40z
m1740 5 c0 -5 -5 -3 -10 5 -8 12 -10 12 -10 1 0 -8 -2 -12 -5 -9 -3 3 -2 13 1
22 5 14 9 15 15 4 5 -7 9 -17 9 -23z m0 -35 c0 -5 -4 -10 -10 -10 -5 0 -10 5
-10 10 0 6 5 10 10 10 6 0 10 -4 10 -10z m-2096 -262 c18 -69 30 -83 80 -101
5 -2 6 -14 3 -28 -6 -22 -11 -25 -41 -21 -19 2 -43 -1 -53 -7 -17 -10 -17 -10
2 -12 11 -1 26 -1 33 0 6 1 12 -3 12 -9 0 -5 -6 -10 -14 -10 -8 0 -16 -6 -19
-12 -3 -9 -11 -7 -27 7 -20 17 -23 18 -17 3 8 -22 -15 -24 -33 -3 -7 8 -25 15
-40 15 -24 0 -28 4 -32 35 -5 43 -1 50 34 59 19 4 30 15 34 34 13 60 15 62 45
62 16 0 31 -6 33 -12z m-987 -23 c138 -32 366 -146 331 -166 -8 -4 -331 -5
-719 -1 l-704 7 -3 79 c-2 44 -1 85 2 93 8 20 1000 10 1093 -12z m-1227 -129
l0 -114 -92 -63 c-51 -35 -122 -86 -158 -114 -36 -28 -73 -56 -82 -61 -37 -20
-121 -132 -157 -209 -35 -75 -51 -127 -66 -217 -8 -52 -21 -55 -17 -5 2 32 1
39 -8 27 -8 -12 -10 -7 -7 20 2 19 2 27 0 17 -4 -15 -7 -16 -26 -2 -15 11 -24
12 -34 3 -20 -16 -17 40 7 140 61 255 232 482 463 617 47 27 154 74 170 75 4
0 7 -51 7 -114z m4074 89 c-4 -8 -11 -15 -16 -15 -6 0 -5 6 2 15 7 8 14 15 16
15 2 0 1 -7 -2 -15z m-135 -99 c-11 -10 -79 -34 -79 -27 0 4 12 12 28 18 27
11 59 16 51 9z m-119 -48 c-34 -14 -107 -21 -95 -9 9 9 50 16 100 19 16 1 15
-1 -5 -10z m-110 -10 c0 -5 -7 -8 -15 -8 -8 0 -15 -5 -15 -11 0 -8 -12 -10
-35 -6 -19 3 -37 1 -40 -4 -4 -5 6 -10 22 -10 20 -1 22 -3 9 -6 -22 -6 -134
16 -141 27 -3 4 14 4 37 -1 27 -7 45 -6 52 1 5 5 19 11 31 12 11 0 0 4 -25 8
-36 6 -29 7 38 6 45 0 82 -4 82 -8z m-1915 -203 c113 -77 198 -177 257 -303
38 -80 67 -187 68 -245 l0 -28 -142 3 -141 3 -22 70 c-31 102 -70 167 -141
235 -107 103 -234 144 -374 123 -128 -20 -241 -92 -305 -193 -31 -50 -65 -150
-65 -193 0 -32 -3 -35 -37 -41 -21 -3 -72 -6 -114 -6 l-75 0 -12 63 c-45 241
-265 406 -491 369 -199 -33 -348 -182 -395 -394 l-6 -27 -130 -3 -130 -3 0 34
c0 98 68 259 169 400 82 114 109 141 153 151 18 4 452 8 964 9 l931 1 38 -25z
m969 -312 c37 -116 104 -189 202 -220 39 -12 54 -22 54 -34 0 -14 -14 -21 -61
-30 -90 -18 -147 -60 -184 -136 -17 -34 -33 -65 -37 -68 -4 -4 -20 20 -37 52
-36 72 -95 128 -153 143 -118 32 -145 53 -86 65 44 10 117 47 148 76 37 35 66
86 85 152 22 77 45 78 69 0z m-2440 21 c32 -31 9 -54 -53 -54 -91 -1 -179 -68
-202 -155 -28 -102 7 -202 92 -261 49 -34 50 -48 2 -28 -51 21 -107 77 -128
127 -9 23 -21 50 -26 59 -13 26 -10 107 5 151 29 80 83 134 163 163 53 18 128
18 147 -2z m1140 -5 c50 -15 70 -26 78 -44 8 -19 8 -28 -2 -40 -17 -21 -31
-19 -86 10 -55 29 -125 33 -181 10 -48 -20 -69 -40 -105 -94 -23 -37 -28 -56
-28 -108 0 -82 19 -126 78 -180 47 -43 44 -55 -7 -29 -37 20 -84 74 -100 117
-7 18 -17 42 -22 51 -16 31 -10 121 12 168 62 138 199 190 363 139z m2689 14
c-24 -2 -62 -2 -85 0 -24 2 -5 4 42 4 47 0 66 -2 43 -4z m270 0 c-7 -2 -19 -2
-25 0 -7 3 -2 5 12 5 14 0 19 -2 13 -5z m690 0 c-24 -2 -62 -2 -85 0 -24 2 -5
4 42 4 47 0 66 -2 43 -4z m156 -21 c18 -26 20 -70 2 -73 -42 -9 -47 -6 -43 23
3 17 7 26 11 22 3 -5 15 -10 26 -12 18 -2 18 -1 -4 18 -12 11 -27 17 -32 14
-5 -3 -9 0 -9 6 0 6 -3 9 -8 6 -4 -2 -16 2 -27 10 -17 13 -16 14 22 14 34 0
45 -5 62 -28z m-1576 -89 c-13 -2 -33 -2 -45 0 -13 2 -3 4 22 4 25 0 35 -2 23
-4z m-3341 -90 c37 -36 39 -99 4 -140 -21 -24 -32 -28 -74 -28 -39 0 -56 5
-76 24 -53 50 -39 137 27 167 42 18 85 10 119 -23z m1043 23 c62 -26 85 -112
42 -161 -27 -32 -95 -45 -133 -24 -56 30 -70 108 -29 158 22 26 35 32 78 40 4
0 23 -5 42 -13z m2273 -189 c25 -56 72 -102 124 -119 23 -8 43 -19 45 -24 2
-5 -19 -17 -47 -27 -28 -10 -66 -34 -85 -53 -47 -47 -87 -62 -100 -37 -20 37
-73 79 -116 93 -64 20 -65 25 -14 44 62 24 101 59 131 117 13 27 29 49 34 49
5 0 18 -19 28 -43z m1534 -15 c16 -16 22 -97 9 -121 l-12 -21 -465 0 -464 0
-10 26 c-14 35 -12 87 3 107 11 15 51 17 412 20 456 4 513 3 527 -11z m-5417
-232 l0 -190 -121 0 -121 0 -5 183 c-4 127 -2 184 6 189 6 4 63 8 126 8 l115
0 0 -190z m1194 145 c36 -67 136 -156 207 -184 130 -51 288 -34 405 44 28 20
57 39 62 42 17 10 -1 -73 -34 -158 l-30 -79 -770 0 -769 0 -19 32 c-18 29 -61
168 -61 198 0 10 4 10 18 -2 33 -30 122 -77 173 -92 179 -53 388 30 478 189
l31 55 143 0 142 0 24 -45z m1143 33 c2 -7 2 -93 0 -190 l-4 -178 -139 0 -140
0 8 38 c4 20 8 106 8 190 l-1 152 132 0 c97 0 133 -3 136 -12z m2256 -326 l3
-62 -61 0 -60 0 0 59 0 60 48 4 c26 2 52 3 57 2 6 -1 11 -29 13 -63z m312 -2
l0 -60 -85 0 -85 0 0 60 0 60 85 0 85 0 0 -60z m270 0 l0 -60 -65 0 -65 0 0
60 0 60 65 0 65 0 0 -60z m256 36 c3 -13 4 -38 2 -57 -3 -33 -4 -34 -54 -37
-56 -3 -64 5 -64 74 0 41 5 44 61 44 43 0 49 -3 55 -24z m-5336 -313 c25 -42
82 -115 127 -162 46 -47 83 -87 83 -88 0 -2 -103 -3 -229 -3 l-229 0 -22 35
c-12 20 -19 42 -16 50 3 8 0 14 -6 12 -17 -3 -46 107 -47 176 l-1 57 148 0
147 -1 45 -76z m1520 69 c0 -25 -129 -132 -196 -162 -43 -20 -63 -21 -393 -22
-336 0 -349 0 -390 21 -23 12 -49 28 -59 36 -100 81 -142 117 -142 125 0 5
252 9 590 10 334 0 590 -3 590 -8z m715 -44 c-15 -125 -76 -256 -125 -269 -28
-8 -392 -10 -372 -2 24 9 12 20 -23 18 l-35 -1 27 28 c20 21 29 25 36 16 6
-10 7 -9 4 3 -3 9 5 27 17 40 31 35 89 116 120 172 l28 47 165 0 165 0 -7 -52z
m1715 32 c5 -8 10 -39 10 -68 l0 -52 -642 2 -643 3 -2 62 c-1 51 1 63 15 66 9
3 295 4 635 3 537 -1 619 -3 627 -16z m1369 -19 c17 -11 21 -105 5 -120 -11
-11 -900 -17 -926 -7 -27 12 -36 65 -18 110 l10 26 457 0 c259 0 464 -4 472
-9z m-1359 -248 l0 -58 -627 3 c-346 1 -639 3 -653 5 -25 2 -25 3 -17 55 l9
52 644 0 644 0 0 -57z m517 -79 c2 -11 0 -13 -3 -6 -3 6 -23 12 -44 12 -21 0
-41 -6 -43 -12 -3 -7 -6 -4 -6 7 -1 17 5 20 46 19 39 -1 48 -5 50 -20z m-529
-121 l-3 -58 -642 -3 -643 -2 -1 22 c0 13 -2 40 -4 61 l-4 37 650 0 650 0 -3
-57z m-2048 -24 c-14 -11 -61 -38 -105 -60 l-79 -39 -796 1 c-639 1 -801 4
-828 15 -41 17 -153 94 -148 103 2 3 449 5 993 3 l988 -3 -25 -20z m2028 -176
l-3 -58 -682 0 c-375 0 -685 4 -690 8 -15 15 33 81 68 94 25 9 204 12 672 12
l638 1 -3 -57z m1399 -25 c-3 -8 -6 -5 -6 6 -1 11 2 17 5 13 3 -3 4 -12 1 -19z
m-940 -65 c-3 -10 -5 -4 -5 12 0 17 2 24 5 18 2 -7 2 -21 0 -30z m-2977 -17
c0 -2 -30 -19 -67 -36 -67 -33 -70 -33 -261 -40 -234 -9 -606 -3 -647 10 -16
6 -50 24 -75 40 l-45 30 548 0 c301 0 547 -2 547 -4z m2465 -81 l0 -30 -732
-3 c-440 -1 -733 2 -733 7 0 5 14 21 31 35 l31 26 701 -2 702 -3 0 -30z m-177
-72 c-10 -2 -28 -2 -40 0 -13 2 -5 4 17 4 22 1 32 -1 23 -4z m125 0 c-7 -2
-19 -2 -25 0 -7 3 -2 5 12 5 14 0 19 -2 13 -5z m1162 -39 c30 -35 68 -34 106
2 l29 28 56 -27 c44 -22 54 -31 49 -45 -26 -62 -16 -98 30 -118 19 -8 46 -14
60 -14 24 0 25 -2 25 -69 l0 -69 -50 -7 c-57 -8 -80 -31 -80 -81 0 -30 -2 -32
-57 -43 -77 -15 -170 -14 -228 4 -27 8 -52 12 -56 9 -4 -2 -7 8 -7 23 2 64
-12 77 -104 97 -26 6 -28 9 -24 49 3 23 5 52 5 64 1 19 8 24 40 29 69 11 94
49 71 109 -9 24 -6 28 37 55 57 37 70 37 98 4z m-1175 -99 l0 -34 -830 1 -831
2 26 25 25 26 798 5 c438 3 800 6 805 8 4 1 7 -14 7 -33z m-1177 -52 c6 -9
-151 -8 -160 1 -4 3 30 6 75 6 44 0 83 -3 85 -7z m835 2 c-10 -10 -118 -14
-118 -4 0 5 28 9 62 9 34 0 59 -2 56 -5z m870 -88 c16 -10 15 -29 -1 -51 -17
-23 -53 -14 -62 15 -12 37 26 59 63 36z m-1965 -134 c-13 -2 -33 -2 -45 0 -13
2 -3 4 22 4 25 0 35 -2 23 -4z m2171 -150 c28 -56 67 -94 114 -113 43 -17 40
-27 -10 -42 -45 -13 -128 -88 -128 -114 0 -23 -17 -16 -24 11 -9 37 -71 93
-116 105 -22 6 -40 15 -40 20 0 5 17 17 38 25 50 22 91 61 113 113 10 23 21
42 23 42 3 0 17 -21 30 -47z m548 -200 c31 -28 22 -49 -27 -63 -50 -14 -50
-14 -59 17 -5 15 -1 28 13 42 25 25 48 27 73 4z m-1116 -25 c6 -18 13 -40 15
-48 3 -13 -42 -14 -356 -10 -475 7 -936 6 -1810 -1 -396 -3 -776 -3 -845 0
l-125 6 65 42 65 42 1490 0 1490 1 11 -32z m-4452 -73 c4 -15 17 -30 31 -35
40 -15 34 -57 -10 -76 -19 -8 -35 -18 -35 -22 0 -17 -41 -10 -50 9 -6 11 -21
19 -35 19 -21 0 -25 5 -25 29 0 22 6 30 24 35 17 4 26 15 31 36 5 25 12 30 35
30 21 0 29 -6 34 -25z m415 -498 c69 -37 115 -86 154 -167 30 -62 32 -71 32
-185 0 -171 -38 -269 -131 -340 -69 -53 -128 -65 -314 -65 -116 0 -170 4 -178
12 -18 18 -17 749 1 767 9 9 57 12 197 9 181 -3 186 -4 239 -31z m2526 1 c69
-36 137 -111 166 -184 20 -51 23 -76 23 -179 0 -100 -4 -129 -23 -177 -29 -75
-98 -150 -169 -185 -55 -27 -63 -28 -238 -31 -180 -4 -182 -4 -198 19 -14 21
-16 67 -16 377 0 233 4 360 11 373 10 20 19 20 202 17 185 -3 194 -4 242 -30z
m2795 17 c59 -30 68 -98 21 -146 -41 -40 -91 -40 -132 0 -46 47 -38 115 19
145 35 19 56 20 92 1z m-4694 -220 c136 -40 219 -180 192 -325 -19 -104 -79
-180 -171 -215 -68 -26 -179 -17 -241 19 -176 103 -181 392 -8 493 75 44 145
53 228 28z m660 -14 c52 -23 57 -49 21 -102 -24 -36 -26 -36 -116 -23 -79 12
-114 -29 -114 -135 0 -121 56 -157 171 -110 33 13 35 13 57 -15 47 -59 51 -73
25 -101 -30 -32 -101 -55 -171 -55 -161 0 -262 109 -263 286 -1 70 3 88 29
139 36 69 86 113 152 131 60 17 151 10 209 -15z m1885 -1 c80 -41 129 -137
129 -251 l0 -58 -36 -7 c-19 -3 -94 -3 -165 1 -125 7 -129 6 -129 -13 0 -11
14 -32 31 -46 24 -21 41 -26 84 -26 29 0 71 7 94 15 l42 14 21 -45 c28 -56 20
-71 -53 -102 -45 -19 -68 -22 -134 -19 -88 4 -141 25 -187 74 -114 121 -99
355 27 442 78 53 195 62 276 21z m1075 0 c23 -10 44 -22 47 -27 4 -6 -4 -30
-16 -54 -21 -42 -24 -44 -62 -40 -22 2 -65 4 -95 5 -49 1 -55 -1 -58 -20 -3
-21 35 -43 128 -73 98 -31 148 -101 135 -189 -8 -57 -61 -115 -120 -131 -57
-16 -162 -12 -217 7 -45 16 -98 54 -98 69 0 16 41 74 55 80 9 3 47 -5 85 -17
78 -25 123 -19 128 17 3 17 -9 25 -70 47 -104 39 -153 70 -172 110 -47 99 13
212 125 236 59 12 154 3 205 -20z m718 3 c41 -21 74 -52 94 -88 14 -24 17 -68
20 -237 l4 -207 -29 -7 c-51 -14 -96 -9 -107 10 -32 53 -32 53 -65 22 -25 -24
-42 -30 -89 -34 -77 -5 -123 14 -159 69 -22 34 -28 53 -27 98 0 73 22 113 82
148 41 25 57 28 130 28 l82 0 0 27 c0 57 -64 74 -164 44 l-48 -15 -19 42 c-27
61 -25 76 19 94 83 35 214 38 276 6z m-3374 -3 c18 -18 20 -33 20 -185 0 -154
1 -166 21 -186 28 -28 75 -19 112 21 l27 30 0 160 c0 183 -1 180 91 180 91 0
89 6 89 -285 0 -205 -3 -255 -14 -264 -9 -7 -39 -11 -77 -9 -62 3 -63 3 -72
37 l-8 34 -27 -25 c-41 -39 -66 -48 -127 -48 -93 0 -154 43 -183 129 -8 21
-12 106 -12 222 0 215 -3 208 88 209 39 0 57 -5 72 -20z m1884 1 c8 -7 39 -84
68 -171 29 -88 53 -158 55 -156 1 1 21 65 44 142 55 183 58 190 110 198 55 9
107 -2 114 -24 5 -16 -87 -278 -157 -448 -34 -82 -39 -85 -138 -80 l-64 3 -28
65 c-58 136 -158 418 -158 444 0 18 7 30 23 36 29 13 112 7 131 -9z m1881 -3
c6 -5 11 -108 13 -255 4 -291 6 -283 -94 -283 -52 0 -65 3 -74 19 -6 12 -10
115 -10 264 0 256 1 260 45 269 29 6 108 -3 120 -14z m-831 -384 c36 -36 37
-100 2 -133 -73 -68 -187 19 -142 108 30 58 95 69 140 25z m844 -331 c3 -21
-1 -23 -40 -24 -24 -1 -1333 -2 -2910 -3 l-2868 -1 0 21 c0 11 3 24 7 27 3 4
1312 6 2907 5 l2901 -3 3 -22z m-2966 -260 c56 -52 119 -118 130 -138 7 -11
-127 -126 -180 -154 -26 -14 -39 -7 -154 83 -32 24 -63 46 -69 48 -20 7 3 37
94 126 53 51 93 82 106 82 12 0 45 -21 73 -47z m2245 15 c68 -58 153 -149 153
-163 0 -8 -12 -21 -27 -29 -16 -8 -57 -37 -92 -65 -35 -28 -74 -51 -86 -51
-13 0 -53 24 -92 56 -37 31 -78 61 -90 67 -13 6 -23 14 -23 20 0 13 147 170
173 184 33 18 43 16 84 -19z m-3013 -77 c41 -25 96 -102 96 -133 0 -18 -33
-19 -937 -16 -878 3 -940 4 -976 21 -71 33 -133 114 -112 147 4 7 284 10 948
8 l942 -3 39 -24z"/>
<path d="M6975 5620 c3 -5 8 -10 11 -10 2 0 4 5 4 10 0 6 -5 10 -11 10 -5 0
-7 -4 -4 -10z"/>
<path d="M3348 4383 c7 -3 16 -2 19 1 4 3 -2 6 -13 5 -11 0 -14 -3 -6 -6z"/>
<path d="M6582 3556 c-59 -32 -82 -134 -45 -197 45 -75 163 -79 231 -6 48 51
34 153 -28 195 -38 25 -120 30 -158 8z"/>
<path d="M5925 3410 c-8 -13 5 -13 25 0 13 8 13 10 -2 10 -9 0 -20 -4 -23 -10z"/>
<path d="M1308 2002 l3 -227 64 5 c78 7 111 28 145 95 35 71 35 192 -1 261
-35 69 -76 94 -153 94 l-61 0 3 -228z"/>
<path d="M3832 2003 l3 -228 58 2 c123 5 178 76 178 234 0 60 -4 82 -28 128
-35 69 -73 91 -156 91 l-57 0 2 -227z"/>
<path d="M2041 1995 c-27 -32 -31 -43 -31 -96 0 -65 18 -112 49 -129 46 -24
104 -3 130 47 16 31 14 129 -4 163 -32 62 -97 68 -144 15z"/>
<path d="M4560 2018 c-11 -12 -20 -32 -20 -45 0 -22 3 -23 75 -23 l75 0 0 28
c0 16 -8 36 -18 45 -27 25 -87 22 -112 -5z"/>
<path d="M6352 1838 c-26 -13 -39 -54 -25 -77 7 -11 25 -16 53 -16 35 0 47 5
63 27 14 18 18 34 13 52 -5 22 -12 26 -44 25 -20 0 -47 -5 -60 -11z"/>
</g>
</svg>
